<svg width="78" height="14" viewBox="0 0 78 14" fill="none" xmlns="http://www.w3.org/2000/svg">
<path d="M0 9.06942C0 6.13203 1.89152 4.15887 4.74882 4.15887C5.97646 4.15887 6.94224 4.62097 7.58609 5.42656V0.201782C7.58609 0.0816371 7.66619 0 7.76785 0H9.65783C9.77798 0 9.85961 0.0800968 9.85961 0.201782V13.5764C9.85961 13.7181 9.77952 13.7782 9.65783 13.7782H8.31005C8.1899 13.7782 8.10826 13.6981 8.06822 13.5964L7.76631 12.4905C7.10243 13.4362 6.07658 14 4.74882 14C1.89152 13.9985 0 11.9868 0 9.06942ZM4.88899 6.41391C3.3194 6.41391 2.27352 7.47981 2.27352 9.06942C2.27352 10.639 3.33942 11.7249 4.88899 11.7249C6.45858 11.7249 7.56453 10.6791 7.56453 9.06942C7.56607 7.47981 6.4786 6.41391 4.88899 6.41391Z" fill="white"/>
<path d="M16.4785 11.8464C17.4443 11.8264 18.1882 11.5245 18.6318 11.1025C18.7119 11.0424 18.772 11.0224 18.8336 11.0224C18.8937 11.0224 18.9337 11.0424 18.9738 11.0824L20.1614 12.3101C20.2415 12.3902 20.2615 12.5119 20.1814 12.612C19.2957 13.5577 17.988 13.9798 16.3583 13.9798C13.3609 13.9998 11.3477 12.0082 11.3477 9.07078C11.3477 6.13339 13.3193 4.15869 16.2382 4.15869C19.1956 4.15869 21.1472 5.93006 21.1272 9.77317C21.1272 9.89332 21.0671 9.97495 20.9254 9.97495H13.7829C14.0848 11.0809 15.0306 11.8464 16.4785 11.8464ZM18.732 8.26365C18.4901 7.09609 17.626 6.31206 16.2366 6.31206C14.8473 6.31206 13.9831 7.09609 13.7413 8.26365H18.732Z" fill="white"/>
<path d="M26.9217 13.9985C24.0043 13.9985 22.0327 11.9868 22.0327 9.06942C22.0327 5.81009 24.4479 4.18043 26.8817 4.14038C28.633 4.14038 30.1009 4.76421 31.0867 6.2537C31.1468 6.35383 31.1468 6.47551 31.0667 6.53558L29.6373 7.72317C29.5972 7.76322 29.5572 7.76322 29.4971 7.76322C29.4371 7.76322 29.357 7.7432 29.3154 7.6631C28.7716 6.87908 27.9476 6.41544 26.9217 6.41544C25.3521 6.41544 24.3062 7.48134 24.3062 9.07096C24.3062 10.6606 25.3521 11.7265 26.9217 11.7265C28.1493 11.7265 28.8733 11.1227 29.2753 10.5789C29.3354 10.4988 29.4155 10.4588 29.4771 10.4588C29.5372 10.4588 29.5772 10.4788 29.6188 10.5189L30.9265 11.7265C30.9866 11.8066 31.0267 11.9283 30.9466 12.0284C30.121 13.2745 28.7316 13.9985 26.9217 13.9985Z" fill="white"/>
<path d="M40.5428 4.34075C40.7646 4.34075 40.7846 4.44087 40.6429 4.6026L37.1418 8.78766L41.2868 13.5165C41.447 13.6982 41.4069 13.7783 41.1666 13.7783H38.6713C38.5512 13.7783 38.4695 13.7583 38.4095 13.6782L34.8282 9.53318V13.5981C34.8282 13.6982 34.7481 13.7799 34.648 13.7799H32.7164C32.6163 13.7799 32.5347 13.6998 32.5347 13.5981V0.2019C32.5347 0.101779 32.6148 0.0201416 32.7164 0.0201416H34.628C34.7481 0.0201416 34.8297 0.100238 34.8297 0.2019V8.14381L37.7671 4.46089C37.8072 4.3808 37.8873 4.34075 37.989 4.34075H40.5428Z" fill="white"/>
<path d="M46.4792 11.8464C47.445 11.8264 48.189 11.5245 48.6326 11.1025C48.7127 11.0424 48.7727 11.0224 48.8344 11.0224C48.8944 11.0224 48.9345 11.0424 48.9745 11.0824L50.1621 12.3101C50.2422 12.3902 50.2622 12.5119 50.1821 12.612C49.2965 13.5577 47.9887 13.9798 46.3591 13.9798C43.3616 13.9998 41.3484 12.0082 41.3484 9.07078C41.3484 6.13339 43.32 4.15869 46.2374 4.15869C49.1948 4.15869 51.1464 5.93006 51.1264 9.77317C51.1264 9.89332 51.0663 9.97495 50.9246 9.97495H43.7821C44.084 11.0809 45.0298 11.8464 46.4792 11.8464ZM48.7327 8.26365C48.4909 7.09609 47.6267 6.31206 46.2374 6.31206C44.848 6.31206 43.9839 7.09609 43.7421 8.26365H48.7327Z" fill="white"/>
<path d="M52.6143 4.54237C52.6143 4.42222 52.6944 4.34059 52.8161 4.34059H54.3056C54.4473 4.34059 54.5274 4.42068 54.5474 4.54237L54.7692 5.6283C55.3731 4.68254 56.3589 4.09875 57.7467 4.09875C59.88 4.09875 61.348 5.64832 61.348 8.32386V13.5748C61.348 13.695 61.2679 13.7766 61.1462 13.7766H59.2547C59.1345 13.7766 59.0529 13.6965 59.0529 13.5748V8.74745C59.0529 7.15784 58.2689 6.41386 57.1614 6.41386C55.6118 6.41386 54.9679 7.84174 54.9079 9.19106V13.5779C54.9079 13.6981 54.8078 13.7797 54.7061 13.7797H52.8146C52.6944 13.7797 52.6128 13.6996 52.6128 13.5779V4.54237H52.6143Z" fill="white"/>
<path d="M62.8159 9.06942C62.8159 6.13203 64.7074 4.16041 67.5647 4.16041C68.7924 4.16041 69.7582 4.62251 70.402 5.4281V0.201782C70.402 0.0816371 70.4821 0 70.5838 0H72.4753C72.5954 0 72.6771 0.0800968 72.6771 0.201782V13.5764C72.6771 13.7181 72.597 13.7782 72.4753 13.7782H71.1275C71.0074 13.7782 70.9257 13.6981 70.8857 13.5964L70.5838 12.4905C69.9199 13.4362 68.894 14 67.5663 14C64.7074 13.9985 62.8159 11.9868 62.8159 9.06942ZM67.7064 6.41391C66.1369 6.41391 65.091 7.47981 65.091 9.06942C65.091 10.639 66.1569 11.7249 67.7064 11.7249C69.276 11.7249 70.382 10.6791 70.382 9.06942C70.382 7.47981 69.2961 6.41391 67.7064 6.41391Z" fill="white"/>
<path d="M76.2167 11.1611C77.0423 11.1611 77.6045 11.7249 77.6045 12.569C77.6045 13.3946 77.0408 13.9768 76.2167 13.9768C75.3711 13.9768 74.8088 13.3931 74.8088 12.569C74.8073 11.7249 75.3711 11.1611 76.2167 11.1611Z" fill="white"/>
</svg>
