<svg width="80" height="12" viewBox="0 0 80 12" fill="none" xmlns="http://www.w3.org/2000/svg">
<path fill-rule="evenodd" clip-rule="evenodd" d="M0.311193 11.7117V7.63678H2.74259C2.93419 8.42237 3.57283 9.08851 4.57641 9.54332C6.65656 10.4667 9.25218 10.6413 11.5741 10.0073C12.1398 9.85571 12.5594 9.56629 12.7601 9.19417C13.0065 8.74854 12.7647 8.25239 12.1762 7.97215C11.7064 7.75623 11.2137 7.6184 10.6481 7.5449C10.0049 7.45302 9.41184 7.3933 8.75495 7.34735L6.24144 7.16359C5.10101 7.0809 4.07918 6.90632 3.02998 6.60771C1.2874 6.10696 0.133286 5.03654 0.0101191 3.80992C-0.108486 2.57871 0.822107 1.4256 2.4552 0.782433C3.29 0.460848 4.12936 0.254115 5.0782 0.13467C7.71944 -0.182321 10.2786 0.0611646 12.6643 0.855938C12.751 0.888097 12.8514 0.888097 12.9426 0.860532C13.0338 0.832968 13.0977 0.782433 13.116 0.718116L13.2984 0.194393H15.6842V4.05341H13.2209C12.8605 3.19891 11.9983 2.5098 10.7712 2.10093C9.0469 1.53586 7.16291 1.42101 5.30628 1.77016C4.90485 1.84366 4.55816 1.96311 4.23884 2.13768C3.83285 2.37657 3.64125 2.71194 3.71424 3.06109C3.78723 3.40565 4.11111 3.69967 4.59922 3.85127C5.3519 4.09016 6.0909 4.23717 6.92114 4.31527L10.2603 4.60929C11.2685 4.70117 12.1717 4.8344 13.1388 5.02735C14.4206 5.28002 15.4424 5.82212 16.0811 6.58474C16.7152 7.34735 16.8566 8.19726 16.478 9.02878C16.0081 10.0854 14.927 10.9215 13.4079 11.4131C12.7647 11.6106 12.1398 11.7485 11.4418 11.8358C8.62266 12.2171 5.84457 11.9322 3.3493 11.0042C3.29 10.9813 3.21701 10.9767 3.14859 10.9904C3.08016 11.0088 3.02998 11.041 3.00261 11.0823L2.65136 11.7117H0.311193ZM22.4173 6.22181C22.4766 7.04415 22.7047 7.78379 23.129 8.55559C23.4574 9.12985 24.0002 9.59385 24.7621 9.96138C26.418 10.7332 28.6943 10.6964 30.2863 9.87409C31.08 9.46062 31.6411 8.95528 32.0106 8.34427C32.5444 7.43924 32.777 6.55258 32.7405 5.58323C32.6903 4.76549 32.4121 4.02584 31.8738 3.28161C31.1211 2.21578 29.5108 1.52667 27.6998 1.49911C26.6506 1.48992 25.6835 1.68287 24.8305 2.08255C23.7539 2.57412 23.0332 3.26323 22.723 4.09476C22.4493 4.81143 22.3489 5.48676 22.4173 6.22181ZM18.2251 8.33048C17.3903 6.55717 17.5089 4.76549 18.5718 3.04731C19.3929 1.76556 20.9895 0.828374 23.0423 0.419502C24.5887 0.120888 26.0621 -0.00774638 27.677 0.00603582C29.2736 0.00603582 30.7288 0.162234 32.2387 0.497601C34.3006 0.961602 35.8744 1.95392 36.6362 3.27701C37.6079 4.93088 37.7082 6.63527 36.9236 8.33048C36.6089 9.015 36.1071 9.59845 35.3635 10.1314C34.547 10.7286 33.589 11.1466 32.4303 11.4223C30.8611 11.7852 29.342 11.9552 27.677 11.9598C25.9937 11.969 24.4564 11.7944 22.8735 11.4223C21.6738 11.1512 20.6793 10.7332 19.8126 10.1314C19.069 9.59845 18.5535 9.015 18.2251 8.33048ZM36.9327 0.198987H44.8017L53.9389 8.41318V2.60168C53.9389 2.3582 53.7974 2.13768 53.5329 1.96311C53.2683 1.78853 52.9262 1.69665 52.5521 1.69665H50.7867V0.198987H59.1803V1.69665H57.9577C57.57 1.69665 57.2187 1.79313 56.9496 1.9677C56.6759 2.14228 56.5345 2.37198 56.5345 2.62465V11.7117H52.2419L42.3521 2.87733L42.3566 9.31821C42.3658 9.56169 42.5117 9.78221 42.7809 9.95678C43.0546 10.1268 43.3967 10.2186 43.7753 10.2186H45.5727V11.7117H36.9327V10.2186H38.3925C38.7574 10.2186 39.0904 10.1314 39.3459 9.96138C39.6059 9.79599 39.7382 9.58007 39.7336 9.34118V2.48683C39.7336 2.27091 39.6059 2.07796 39.3687 1.92636C39.1361 1.77475 38.8304 1.69665 38.502 1.69665H36.9327V0.198987ZM64.4491 11.7117V10.2186H66.2555C66.6296 10.2186 66.9671 10.1268 67.2363 9.96138C67.5009 9.7914 67.6468 9.57088 67.6468 9.33199V6.95686L63.2174 2.45467C62.7476 1.98148 61.9538 1.70125 61.0825 1.70584H59.9649V0.198987H70.0144V1.69665H68.3722C68.1486 1.69665 67.9525 1.77935 67.8476 1.90339C67.7472 2.02743 67.7563 2.17903 67.8795 2.29848L70.9267 5.24787L73.9648 2.23875C74.0743 2.12849 74.0834 1.99527 73.9876 1.88041C73.8918 1.76556 73.7139 1.69665 73.5132 1.69665H71.757V0.198987H80V1.69665H79.1606C78.2529 1.69206 77.4317 1.97689 76.9345 2.46846L72.2861 6.96145V9.37334C72.2816 9.59845 72.4093 9.80518 72.6556 9.96597C72.9019 10.1268 73.2167 10.2141 73.568 10.2141H75.5569V11.7071H64.4491V11.7117Z" fill="white"/>
</svg>
